<?xml version="1.0" encoding="UTF-8"?>
<svg width="1000px" height="1000px" viewBox="0 0 1000 1000" version="1.1" xmlns="http://www.w3.org/2000/svg" xmlns:xlink="http://www.w3.org/1999/xlink">
    <!-- Generator: Sketch 64 (93537) - https://sketch.com -->
    <title>Green</title>
    <desc>Created with Sketch.</desc>
    <defs>
        <linearGradient x1="50%" y1="0%" x2="50%" y2="100%" id="linearGradient-1">
            <stop stop-color="#A3DFCD" offset="0%"></stop>
            <stop stop-color="#03705B" offset="100%"></stop>
        </linearGradient>
        <circle id="path-2" cx="400" cy="400" r="400"></circle>
        <linearGradient x1="50%" y1="0%" x2="50%" y2="99.6727196%" id="linearGradient-4">
            <stop stop-color="#7AD1B8" offset="0%"></stop>
            <stop stop-color="#028B68" offset="100%"></stop>
        </linearGradient>
        <circle id="path-5" cx="362" cy="362" r="362"></circle>
        <filter x="-7.2%" y="-6.1%" width="114.4%" height="114.4%" filterUnits="objectBoundingBox" id="filter-7">
            <feMorphology radius="4" operator="dilate" in="SourceAlpha" result="shadowSpreadOuter1"></feMorphology>
            <feOffset dx="0" dy="8" in="shadowSpreadOuter1" result="shadowOffsetOuter1"></feOffset>
            <feGaussianBlur stdDeviation="12" in="shadowOffsetOuter1" result="shadowBlurOuter1"></feGaussianBlur>
            <feColorMatrix values="0 0 0 0 0.0431372549   0 0 0 0 0.0745098039   0 0 0 0 0.168627451  0 0 0 0.16 0" type="matrix" in="shadowBlurOuter1"></feColorMatrix>
        </filter>
        <linearGradient x1="50%" y1="86.9237782%" x2="48.6188688%" y2="23.9489453%" id="linearGradient-8">
            <stop stop-color="#0B132B" stop-opacity="0" offset="0%"></stop>
            <stop stop-color="#0B132B" offset="100%"></stop>
        </linearGradient>
        <linearGradient x1="101.054004%" y1="31.3965292%" x2="-1.0243879%" y2="68.7934646%" id="linearGradient-9">
            <stop stop-color="#00A676" offset="0%"></stop>
            <stop stop-color="#01946D" offset="100%"></stop>
        </linearGradient>
        <linearGradient x1="50%" y1="0%" x2="50%" y2="100%" id="linearGradient-10">
            <stop stop-color="#03705B" offset="0%"></stop>
            <stop stop-color="#01946D" offset="100%"></stop>
        </linearGradient>
    </defs>
    <g id="Green" stroke="none" stroke-width="1" fill="none" fill-rule="evenodd">
        <g id="Wave" transform="translate(100.000000, 100.000000)">
            <mask id="mask-3" fill="white">
                <use xlink:href="#path-2"></use>
            </mask>
            <use id="Mask" fill="url(#linearGradient-1)" xlink:href="#path-2"></use>
            <g id="Wave-Group" mask="url(#mask-3)">
                <g transform="translate(38.000000, 38.000000)">
                    <mask id="mask-6" fill="white">
                        <use xlink:href="#path-5"></use>
                    </mask>
                    <g id="Mask" stroke="none" fill="none">
                        <use fill="black" fill-opacity="1" filter="url(#filter-7)" xlink:href="#path-5"></use>
                        <use fill="url(#linearGradient-4)" fill-rule="evenodd" xlink:href="#path-5"></use>
                    </g>
                    <path d="M746.3359,403.59895 L746.3359,353.961439 C736.294424,336.246939 738.150952,185 693.857143,185 C656.68281,185 623.798714,230.653 568.906857,311.38 C552.348857,335.6975 526.816143,373.221 511.046619,390.758 C500.726857,373.6115 486.163238,342.123 476.585571,321.391 C444.095714,251.243 413.461095,185 369.213667,185 C332.062524,185 299.178429,230.6175 244.309762,311.2735 C227.728571,335.662 202.172667,373.221 186.379952,390.7225 C176.083381,373.6115 161.542952,342.194 151.988476,321.533 C119.475429,251.314 88.7944286,185 44.500619,185 C7.37266667,185 -12.9449963,305.7 -28.3434725,321.533 L-21.3037485,367.731154 C-21.3037485,376.55662 -19.5524038,391.852902 -16.0497143,413.62 C-11.8133202,439.946628 38.7614949,587.687942 54.5310187,570.150942 C64.8507806,587.297442 139.529818,688.954411 183.777247,688.954411 C201.485959,688.954411 356.741314,770.700125 424.209353,735.276636 C450.133659,721.665311 496.969678,711.463159 528.498314,698.609654 C587.056175,674.736951 618.099968,633.634646 633.167667,633.634646 C670.295619,633.634646 661.06398,587.815432 715.909456,507.194932 C732.490646,482.806432 724,497.027291 746.3359,455.163685 L746.3359,403.59895 Z" id="Shadow" stroke="none" fill-opacity="0.33" fill="url(#linearGradient-8)" fill-rule="evenodd" mask="url(#mask-6)"></path>
                    <g id="Wave-Group" stroke="none" stroke-width="1" fill="none" fill-rule="evenodd" mask="url(#mask-6)">
                        <g transform="translate(-141.000000, 185.000000)" id="Wave">
                            <g>
                                <path d="M974,213 L974,200.9655 C963.958524,183.251 951.064619,155.4545 942.275429,136.462 C909.808762,66.2785 879.150952,0 834.857143,0 C797.68281,0 764.798714,45.653 709.906857,126.38 C693.348857,150.6975 667.816143,188.221 652.046619,205.758 C641.726857,188.6115 627.163238,157.123 617.585571,136.391 C585.095714,66.243 554.461095,0 510.213667,0 C473.062524,0 440.178429,45.6175 385.309762,126.2735 C368.728571,150.662 343.172667,188.221 327.379952,205.7225 C317.083381,188.6115 302.542952,157.194 292.988476,136.533 C260.475429,66.314 229.794429,0 185.500619,0 C148.372667,0 115.534952,45.6175 60.6894762,126.238 C43.0647143,152.1175 15.3984762,192.765 -3.41060513e-13,208.598 L-3.41060513e-13,213 L-3.41060513e-13,355 C37.1743333,355 70.0584286,309.347 124.950286,228.62 C141.508286,204.3025 167.041,166.779 182.810524,149.242 C193.130286,166.3885 207.693905,197.877 217.271571,218.609 C249.738238,288.757 280.396048,355 324.643476,355 C361.794619,355 394.678714,309.3825 449.547381,228.7265 C466.128571,204.338 491.684476,166.779 507.47719,149.2775 C517.773762,166.3885 532.31419,197.806 541.868667,218.467 C574.381714,288.686 605.062714,355 649.356524,355 C686.484476,355 719.32219,309.3825 774.167667,228.762 C790.748857,204.3735 816.351143,166.779 832.143857,149.242 C842.440429,166.353 857.004048,197.8415 866.581714,218.538 C899.048381,288.7215 929.70619,355 974,355 L974,213 Z" id="Front-1" fill="url(#linearGradient-9)" fill-rule="nonzero"></path>
                                <path d="M182.205303,148.5175 C192.519916,165.724375 207.076268,197.32375 216.649156,218.12875 C249.099622,288.52375 279.742135,355 323.967485,355 C344.109953,355 363.116655,341.070625 384.951184,315.8125 C367.590184,302.880625 327.003922,204.87625 326.702596,205.196875 C316.411162,188.025625 301.877989,156.4975 292.32828,135.76375 C282.106383,113.569375 272.023559,92.051875 261.662589,72.600625 C259.205625,70.9975 256.795019,70 254.453949,70 C242.400919,70 212.96371,105.660625 181,150.01375 C181.370862,149.58625 181.834441,148.909375 182.205303,148.5175 Z M506.709971,148.553125 C517.001405,165.724375 531.534578,197.2525 541.084287,217.98625 C573.581112,288.4525 604.246803,355 648.518511,355 C668.660979,355 687.644502,341.070625 709.455852,315.8125 C692.071673,302.91625 651.50859,204.911875 651.207264,205.2325 C640.892651,188.025625 626.336299,156.42625 616.763411,135.62125 C606.564693,113.498125 596.48187,91.980625 586.167257,72.565 C583.710293,70.9975 581.299687,70 578.958617,70 C566.882408,70 537.352483,105.803125 505.319237,150.263125 C505.736457,149.764375 506.292751,149.01625 506.709971,148.553125 Z M973,212.5 L973,200.423125 C962.963534,182.64625 950.076063,154.751875 941.291258,135.6925 C931.138898,113.67625 921.14879,92.265625 910.857356,72.92125 C908.284498,71.175625 905.804355,70 903.463285,70 C891.410255,70 861.973046,105.660625 830.009336,150.01375 C830.380198,149.58625 830.843777,148.909375 831.214639,148.5175 C841.506073,165.68875 856.062425,197.288125 865.635313,218.0575 C898.08578,288.488125 928.728292,355 973,355 L973,212.5 Z" id="Back-1" fill="url(#linearGradient-10)" fill-rule="nonzero"></path>
                            </g>
                        </g>
                    </g>
                </g>
            </g>
        </g>
    </g>
</svg>